# xmcd CD database file
#
# Track frame offsets:
#	150
#	14100
#	25929
#	40678
#	57759
#	74203
#	85172
#	101790
#	111504
#	126386
#	148312
#
# Disc length: 2194 seconds
#
# Revision: 0
# Processed by: cddbd v1.5PL3 Copyright (c) Steve Scherf et al.
# Submitted via: CDex 1.50beta10
#
DISCID=ab08900b
DTITLE=須釜俊一 - 潮騒
DYEAR=2003
DGENRE=New Age
TTITLE0=雨上がり
TTITLE1=スケッチブック
TTITLE2=晩秋
TTITLE3=雪の風景
TTITLE4=さざなみ
TTITLE5=白い朝
TTITLE6=月明かり
TTITLE7=魔法の靴
TTITLE8=潮騒
TTITLE9=雨と想い出と
TTITLE10=The Heartless
EXTD=YEAR: 2003
EXTT0=
EXTT1=
EXTT2=
EXTT3=
EXTT4=
EXTT5=
EXTT6=
EXTT7=
EXTT8=
EXTT9=
EXTT10=
PLAYORDER=
